<svg width="1058" height="785" viewBox="0 0 1058 785" fill="none" xmlns="http://www.w3.org/2000/svg">
<rect width="1058" height="785" fill="#E5E5E5"/>
<g id="undraw_Ride_a_bicycle_2yok 1" clip-path="url(#clip0)">
<path id="Vector" d="M209.802 115.432C204.322 122.082 202.212 131.432 199.852 140.222C180.852 211.062 134.032 268.042 80.7121 308.742C58.1321 325.982 30.6421 349.102 35.5821 380.012C38.2421 396.612 49.9121 408.832 58.5821 422.352C76.7721 450.662 82.6721 489.142 74.0021 523.032C64.1421 561.592 36.5821 597.572 45.1121 636.562C50.3721 660.562 68.2321 677.642 85.4021 692.322C112.189 715.209 139.829 736.649 168.322 756.642C187.422 770.042 207.742 783.082 230.002 784.782C249.602 786.282 268.802 778.832 287.412 771.482C303.672 765.052 320.342 758.362 333.472 745.482C342.042 737.072 348.872 726.222 358.392 719.342C380.752 703.182 409.472 713.422 435.112 720.342C495.612 736.582 560.362 730.652 617.932 703.602C706.242 662.102 773.552 574.952 859.932 528.192C897.072 508.082 937.472 495.602 971.862 469.702C991.237 454.956 1007.89 436.938 1021.06 416.462C1047.06 376.352 1061.12 325.212 1057.06 275.152C1053 225.092 1030.25 176.852 994.522 148.592C956.272 118.342 907.962 112.692 864.442 94.5322C819.502 75.7721 779.522 43.5322 735.012 23.4022C698.996 7.15881 659.8 -0.814994 620.3 0.0657808C580.8 0.946555 541.998 10.6596 506.742 28.4922C458.302 52.9922 409.202 110.152 355.252 114.492C316.812 117.492 239.822 79.0122 209.802 115.432Z" fill="url(#paint0_linear)"/>
<g id="backwheel">
<path id="Vector_2" d="M339.5 629C339.776 629 340 627.881 340 626.5C340 625.119 339.776 624 339.5 624C339.224 624 339 625.119 339 626.5C339 627.881 339.224 629 339.5 629Z" fill="#535461"/>
<path id="Vector_3" d="M336.38 718.05L330.11 620.11L329.98 619.9L323.66 622.1L294.58 706.95L248.33 674.16L322 620.75L322.07 620.54L322.49 620.39L327.24 616.94L250 573.63L231.08 594.43L234.08 613.93L322.9 615.55V617.55L232.42 615.93L229 593.79L254.9 565.33L293.65 520.13L294.34 522L302.54 513L333 518.46V517.25L335 517.31V518.82L380.36 526.94L338.07 611.55L331.9 616.02V616.52V617.08L429.7 583L418.09 674.21L335.09 621.34L332.17 619.7L381.11 698.58L336.38 718.05ZM332.38 623.71L338.23 715.09L378.28 697.71L332.38 623.71ZM251.8 674.14L293.59 703.77L320.93 624.03L251.8 674.14ZM334.12 618.48L336.21 619.65L416.56 670.85L427.36 585.98L334.12 618.48ZM327.02 611.28L329.53 615.33L329.97 615.01L332.97 520.48L303.23 515.16L295.07 524.16L327.02 611.28ZM251.6 572.22L326.44 614.22L325.14 612.09L293.56 525.82L256.37 566.69L251.6 572.22ZM335 520.83L332 613.55L336.52 610.27L377.43 528.45L335 520.83Z" fill="#535461"/>
<path id="Vector_4" d="M446.415 590.738C442.405 572.919 434.285 556.283 422.705 542.158C418.406 536.909 413.666 532.038 408.535 527.598C388.809 510.567 363.986 500.568 337.962 499.17C311.938 497.771 286.187 505.053 264.749 519.873C243.311 534.693 227.401 556.211 219.515 581.05C211.629 605.89 212.214 632.645 221.178 657.116C230.142 681.587 246.978 702.39 269.042 716.258C291.107 730.127 317.152 736.277 343.09 733.743C369.028 731.208 393.39 720.134 412.353 702.257C431.317 684.379 443.807 660.712 447.865 634.968C448.809 628.907 449.284 622.783 449.285 616.648C449.292 607.932 448.329 599.242 446.415 590.738ZM331.225 705.088C312.993 705.069 295.209 699.435 280.292 688.953C265.374 678.47 254.047 663.648 247.851 646.501C241.655 629.354 240.89 610.715 245.66 593.118C250.43 575.521 260.505 559.82 274.513 548.15C288.521 536.48 305.783 529.408 323.953 527.895C342.122 526.381 360.316 530.501 376.062 539.693C391.807 548.884 404.34 562.703 411.956 579.268C419.571 595.834 421.9 614.343 418.625 632.278C414.875 652.722 404.076 671.203 388.107 684.506C372.137 697.809 352.01 705.093 331.225 705.088V705.088Z" fill="#535461"/>
</g>
<g id="frontwheel">
<path id="Vector_5" d="M758.37 718.03L752.11 620.13L751.98 619.92L745.66 622.12L716.57 706.93L670.32 674.13L744.01 620.72L744.08 620.51L744.5 620.36L749.25 616.91L672.01 573.6L653.08 594.4L656.08 613.9L744.88 615.48V617.48L654.4 615.86L651 593.75L676.89 565.3L715.61 520.13L716.3 522L724.5 513L755.04 518.47V517.26L757.04 517.32V518.83L802.4 526.95L760.07 611.6L753.9 616.07V616.57V617.13L851.71 583.05L840.1 674.26L757.1 621.39L754.18 619.75L803.12 698.64L758.37 718.03ZM754.37 623.69L760.22 715.07L800.27 697.69L754.37 623.69ZM673.8 674.13L715.59 703.76L742.93 624.02L673.8 674.13ZM756.12 618.47L758.21 619.64L838.56 670.84L849.36 585.97L756.12 618.47ZM749.02 611.27L751.53 615.32L751.97 615L754.97 520.47L725.23 515.13L717.07 524.13L749.02 611.27ZM673.63 572.22L748.47 614.22L747.17 612.09L715.59 525.82L678.39 566.7L673.63 572.22ZM757 520.83L754 613.52L758.52 610.24L799.43 528.42L757 520.83Z" fill="#535461"/>
<path id="Vector_6" d="M750.757 501C740.144 500.988 729.578 502.415 719.347 505.24C714.071 506.695 708.904 508.523 703.887 510.71C677.157 522.297 655.674 543.387 643.594 569.898C631.514 596.41 629.697 626.459 638.492 654.233C647.287 682.008 666.071 705.533 691.209 720.259C716.348 734.984 746.054 739.863 774.582 733.952C803.109 728.04 828.431 711.759 845.648 688.257C862.865 664.755 870.754 635.702 867.789 606.72C864.823 577.738 851.215 550.885 829.595 531.356C807.975 511.828 779.881 501.012 750.747 501H750.757ZM750.357 707.09C730.076 707.082 710.408 700.137 694.62 687.407C678.831 674.678 667.872 656.931 663.562 637.113C659.252 617.295 661.851 596.599 670.928 578.463C680.004 560.326 695.011 545.84 713.457 537.41C718.149 535.262 723.021 533.532 728.017 532.24C740.229 529.07 752.977 528.537 765.411 530.678C777.845 532.818 789.681 537.581 800.13 544.652C810.58 551.722 819.404 560.937 826.015 571.683C832.627 582.429 836.873 594.46 838.473 606.975C840.073 619.49 838.989 632.202 835.293 644.265C831.598 656.329 825.375 667.467 817.04 676.939C808.704 686.41 798.447 693.998 786.951 699.196C775.455 704.395 762.984 707.086 750.367 707.09H750.357Z" fill="#535461"/>
</g>
<g id="manBike">
<path id="Vector_7" d="M431.95 489.881C431.95 489.881 456.74 476.801 466.32 468.381C472.087 463.335 478.288 458.808 484.85 454.851L515.95 435.921L580.95 430.921L583.95 441.921C583.95 441.921 588.95 457.921 538.95 471.921C488.95 485.921 463.95 507.921 463.95 507.921C463.95 507.921 431.95 518.881 431.95 489.881Z" fill="#DB8B8B"/>
<path id="Vector_8" opacity="0.1" d="M466.6 505.751C464.83 507.101 463.95 507.881 463.95 507.881C463.95 507.881 431.95 518.881 431.95 489.881C431.95 489.881 433.5 489.061 435.95 487.691C438.425 491.721 441.893 495.05 446.021 497.359C450.149 499.669 454.8 500.881 459.53 500.881H462.92L466.6 505.751Z" fill="black"/>
<path id="Vector_9" opacity="0.05" d="M583.01 447.441C580.23 453.331 570.64 463.011 538.95 471.881C498.34 483.251 474.22 499.881 466.6 505.751C464.83 507.101 463.95 507.881 463.95 507.881C463.95 507.881 431.95 518.881 431.95 489.881C431.95 489.881 433.5 489.061 435.95 487.691C443.38 483.621 459.11 474.691 466.29 468.341C472.056 463.294 478.257 458.766 484.82 454.811L515.92 435.881L527.5 434.991L580.92 430.881L583.92 441.881C583.92 441.881 584.62 444.031 583.01 447.441Z" fill="black"/>
<path id="Vector_10" d="M432.45 483.381L405.95 500.881L483.55 565.881C483.55 565.881 494.95 558.881 488.95 550.881C488.95 550.881 468.95 533.881 467.95 509.881L461.95 501.881H458.56C452.828 501.882 447.237 500.102 442.559 496.788C437.882 493.474 434.35 488.789 432.45 483.381Z" fill="#ABB1D1"/>
<path id="Vector_11" opacity="0.1" d="M583.01 447.441C567.01 439.711 527.95 438.881 527.95 438.881L527.53 434.991L580.95 430.881L583.95 441.881C583.95 441.881 584.62 444.031 583.01 447.441Z" fill="black"/>
<path id="Vector_12" d="M527.95 436.881C527.95 436.881 574.95 437.881 586.95 447.881L580.95 326.881H515.95L527.95 436.881Z" fill="#ABB1D1"/>
<path id="Vector_13" opacity="0.05" d="M527.95 436.381C527.95 436.381 574.95 437.381 586.95 447.381L580.95 326.381H515.95L527.95 436.381Z" fill="black"/>
<path id="Vector_14" d="M565.71 362.841C565.71 362.841 683.36 358.841 685.76 374.051C688.16 389.261 568.11 382.851 568.11 382.851C568.11 382.851 558.51 373.241 565.71 362.841Z" fill="#535461"/>
<path id="Vector_15" opacity="0.05" d="M565.71 362.841C565.71 362.841 683.36 358.841 685.76 374.051C688.16 389.261 568.11 382.851 568.11 382.851C568.11 382.851 558.51 373.241 565.71 362.841Z" fill="black"/>
<path id="Vector_16" d="M470.47 423.671H449.66V604.551H470.47V423.671Z" fill="#63626D"/>
<path id="Vector_17" opacity="0.1" d="M470.47 423.661V437.591C463.55 438.491 456.47 439.061 449.66 439.281V423.661H470.47Z" fill="black"/>
<path id="Vector_18" d="M468.91 408.671C465.99 408.445 463.086 408.054 460.21 407.501C448.93 405.341 420.49 400.811 412.84 408.501C403.24 418.101 406.44 434.911 432.05 437.311C457.66 439.711 501.68 433.311 510.49 423.701C510.49 423.661 494.56 410.641 468.91 408.671Z" fill="#535461"/>
<path id="Vector_19" d="M464.87 473.291L683.37 405.261L690.57 422.071L466.47 498.901L464.87 473.291Z" fill="#5B5B63"/>
<path id="Vector_20" d="M529.7 580.541L687.37 425.271L696.17 438.071L545.7 594.941L529.7 580.541Z" fill="#605F67"/>
<path id="Vector_21" d="M757.31 612.001L746.11 618.401L667.97 400.071L664.47 390.301L682.88 379.891L687.49 394.271L757.31 612.001Z" fill="#7B7A84"/>
<path id="Vector_22" opacity="0.1" d="M687.98 388.421L668.46 394.221L664.96 384.451L683.37 374.041L687.98 388.421Z" fill="black"/>
<path id="Vector_23" d="M568.91 405.261L678.56 367.641C678.56 367.641 697.77 370.041 690.56 386.051L580.12 418.861C580.12 418.861 563.32 420.461 568.91 405.261Z" fill="#535461"/>
<path id="Vector_24" opacity="0.1" d="M445.26 613.751C445.259 619.885 444.784 626.01 443.84 632.071C434.24 631.381 424.32 630.381 414.6 629.381C416.759 617.49 416.491 605.285 413.81 593.501C423.28 591.501 432.95 589.591 442.39 587.861C444.303 596.358 445.265 605.041 445.26 613.751Z" fill="black"/>
<path id="Vector_25" opacity="0.1" d="M470.47 583.271V604.541H449.66V586.541C456.86 585.291 463.86 584.181 470.47 583.271Z" fill="black"/>
<path id="Vector_26" d="M336.01 613.381C336.01 613.381 504.09 569.381 517.69 586.171C531.29 602.961 545.7 625.381 503.32 633.381C460.94 641.381 332.84 619.771 332.84 619.771L336.01 613.381Z" fill="#7C7B8F"/>
<path id="Vector_27" opacity="0.1" d="M418.68 539.261L397.32 558.811C393.537 553.955 389.261 549.504 384.56 545.531L404.5 524.701C409.634 529.14 414.378 534.011 418.68 539.261Z" fill="black"/>
<path id="Vector_28" d="M330.41 604.551L456.06 473.291L460.07 503.701L336.81 616.551L330.41 604.551Z" fill="#6C6C78"/>
<path id="Vector_29" opacity="0.1" d="M328.81 626.161C335.885 626.161 341.62 620.426 341.62 613.351C341.62 606.276 335.885 600.541 328.81 600.541C321.735 600.541 316 606.276 316 613.351C316 620.426 321.735 626.161 328.81 626.161Z" fill="black"/>
<path id="Vector_30" d="M753.28 629.511C760.355 629.511 766.09 623.776 766.09 616.701C766.09 609.626 760.355 603.891 753.28 603.891C746.205 603.891 740.47 609.626 740.47 616.701C740.47 623.776 746.205 629.511 753.28 629.511Z" fill="#535461"/>
<path id="Vector_31" opacity="0.1" d="M525.69 626.161C539.834 626.161 551.3 614.695 551.3 600.551C551.3 586.407 539.834 574.941 525.69 574.941C511.546 574.941 500.08 586.407 500.08 600.551C500.08 614.695 511.546 626.161 525.69 626.161Z" fill="black"/>
<path id="Vector_32" d="M527.3 626.161C541.444 626.161 552.91 614.695 552.91 600.551C552.91 586.407 541.444 574.941 527.3 574.941C513.156 574.941 501.69 586.407 501.69 600.551C501.69 614.695 513.156 626.161 527.3 626.161Z" fill="#535461"/>
<path id="Vector_33" d="M520.462 598.627L520.454 598.633C517.447 600.882 516.832 605.143 519.081 608.151L539.407 635.331C541.656 638.339 545.917 638.954 548.925 636.705L548.933 636.699C551.941 634.449 552.555 630.188 550.306 627.181L529.98 600C527.731 596.993 523.47 596.378 520.462 598.627Z" fill="#6C63FF"/>
<path id="Vector_34" d="M642.95 244.881L640.57 274.991C640.296 278.805 640.346 282.635 640.72 286.441C641.03 289.811 640.72 295.711 637.42 304.711C633.183 316.208 630.993 328.358 630.95 340.611V374.881L607.95 370.881C607.95 370.881 608.95 322.881 604.95 314.881C600.95 306.881 607.95 235.881 607.95 235.881L642.95 244.881Z" fill="#DB8B8B"/>
<path id="Vector_35" opacity="0.05" d="M641.77 259.801L640.57 274.991C640.3 278.802 640.353 282.629 640.73 286.431C641.04 289.801 640.73 295.701 637.43 304.711C633.193 316.208 631.003 328.358 630.96 340.611V374.881L607.96 370.881C607.96 370.881 608.96 322.881 604.96 314.881C602.13 309.211 604.81 271.941 606.62 250.671C607.37 241.921 607.96 235.881 607.96 235.881L642.96 244.881L641.77 259.801Z" fill="black"/>
<path id="Vector_36" d="M528.97 474.881L520.32 524.081C519.229 530.65 517.556 537.109 515.32 543.381C510.25 557.241 513.49 576.671 515.95 587.271C517.04 591.951 517.95 594.911 517.95 594.911L491.95 608.911L483.95 602.911V598.911L482.95 509.911C476.95 495.911 478.95 474.911 482.95 466.911C484.087 464.282 484.887 461.52 485.33 458.691C487.33 447.971 487.95 432.911 487.95 432.911C487.95 432.911 503.95 405.911 522.95 423.911C529.95 430.541 532.61 439.211 533.17 447.511C534.15 461.721 528.97 474.881 528.97 474.881Z" fill="#DB8B8B"/>
<path id="Vector_37" opacity="0.1" d="M533.17 447.481C519.3 455.721 495.17 458.051 485.33 458.661C487.33 447.941 487.95 432.881 487.95 432.881C487.95 432.881 503.95 405.881 522.95 423.881C529.95 430.511 532.61 439.181 533.17 447.481Z" fill="black"/>
<path id="Vector_38" d="M566.95 422.881C556.316 428.544 546.267 435.243 536.95 442.881C520.95 455.881 480.95 456.881 480.95 456.881V441.881C481.95 423.881 464.95 403.881 441.95 347.881C427.26 312.121 431.33 291.881 436.19 281.881C438.95 276.231 441.95 273.881 441.95 273.881L566.95 297.881L571.42 311.281L580.95 339.881C580.95 339.881 545.95 341.881 539.95 344.881C533.95 347.881 537.95 374.881 537.95 374.881C531.95 402.881 566.95 422.881 566.95 422.881Z" fill="#ABB1D1"/>
<path id="Vector_39" opacity="0.1" d="M642.95 244.881L641.77 259.801C624.37 264.801 611.95 248.881 611.95 248.881C610.135 249.367 608.352 249.965 606.61 250.671C607.36 241.921 607.95 235.881 607.95 235.881L642.95 244.881Z" fill="black"/>
<path id="Vector_40" opacity="0.1" d="M571.42 311.281C570.95 315.951 570.95 318.881 570.95 318.881C570.95 318.881 547.95 337.881 508.95 308.881C469.95 279.881 434.95 287.881 434.95 287.881C434.95 287.881 435.36 285.561 436.19 281.881C438.95 276.231 441.95 273.881 441.95 273.881L566.95 297.881L571.42 311.281Z" fill="black"/>
<path id="Vector_41" d="M657.95 208.891C655.34 229.241 654.47 254.891 654.47 254.891C631.47 272.891 613.47 249.891 613.47 249.891C591.75 255.721 581.54 274.731 576.73 291.321C574.154 300.295 572.722 309.558 572.47 318.891C572.47 318.891 566.39 323.891 555.19 324.891C544.6 325.781 529.42 323.021 510.47 308.891C471.47 279.891 436.47 287.891 436.47 287.891C436.47 287.891 443.47 247.891 459.47 235.891C475.47 223.891 487.47 208.891 507.47 162.891C527.47 116.891 568.47 127.891 568.47 127.891C568.47 127.891 570.47 118.891 607.47 127.891C616.482 130.253 624.824 134.672 631.84 140.801C651.63 157.441 661.23 183.251 657.95 208.891Z" fill="white"/>
<path id="Vector_42" d="M619.32 147.381C619.27 148.711 619.16 150.191 618.98 151.841C616.98 169.841 614.98 167.841 592.98 171.841C579.3 174.331 572.19 162.901 568.77 153.901C567.532 150.641 566.598 147.273 565.98 143.841L613.98 135.841C613.98 135.841 619.73 134.231 619.32 147.381Z" fill="#DB8B8B"/>
<path id="Vector_43" opacity="0.05" d="M575.21 288.311C572.634 297.285 571.202 306.548 570.95 315.881C570.95 315.881 564.87 320.881 553.67 321.881C553.354 321.244 553.113 320.573 552.95 319.881C550.95 310.881 535.95 294.881 535.95 294.881C525.95 285.881 523.95 269.881 523.95 269.881L507.45 221.381L501.95 216.881C501.95 216.881 524.95 198.881 544.95 213.881C564.95 228.881 558.95 260.881 558.95 260.881L562.95 271.881C567.1 275.381 571.32 281.551 575.21 288.311Z" fill="black"/>
<path id="Vector_44" d="M504.95 215.881L526.95 268.881C526.95 268.881 528.95 284.881 538.95 293.881C538.95 293.881 553.95 309.881 555.95 318.881C557.95 327.881 585.95 351.881 585.95 351.881C585.95 351.881 611.95 375.881 613.95 384.881C613.95 384.881 637.95 391.881 634.95 405.881C634.95 405.881 652.95 387.881 634.95 370.881C616.95 353.881 592.95 318.881 592.95 318.881C592.95 318.881 578.95 281.881 565.95 270.881L561.95 259.881C561.95 259.881 567.95 227.881 547.95 212.881C527.95 197.881 504.95 215.881 504.95 215.881Z" fill="#DB8B8B"/>
<path id="Vector_45" opacity="0.1" d="M517.95 594.881L491.95 608.881L483.95 602.881V598.881C492.934 598.243 501.663 595.609 509.5 591.171C511.9 589.811 514.16 588.471 515.97 587.291C517.02 591.921 517.95 594.881 517.95 594.881Z" fill="black"/>
<path id="Vector_46" opacity="0.1" d="M547.95 173.881L561.95 228.881C561.95 228.881 518.95 235.881 509.95 228.881C500.95 221.881 483.95 219.881 483.95 219.881C483.95 219.881 501.95 167.881 511.95 161.881C521.95 155.881 547.95 173.881 547.95 173.881Z" fill="black"/>
<path id="Vector_47" d="M547.95 171.881L561.95 226.881C561.95 226.881 518.95 233.881 509.95 226.881C500.95 219.881 483.95 217.881 483.95 217.881C483.95 217.881 501.95 165.881 511.95 159.881C521.95 153.881 547.95 171.881 547.95 171.881Z" fill="white"/>
<path id="Vector_48" opacity="0.1" d="M619.32 146.381C616.519 150.247 612.957 153.499 608.853 155.938C604.748 158.376 600.188 159.949 595.453 160.56C590.718 161.171 585.909 160.806 581.32 159.489C576.731 158.172 572.46 155.93 568.77 152.901C567.532 149.641 566.598 146.273 565.98 142.841L613.98 134.841C613.98 134.841 619.73 133.231 619.32 146.381Z" fill="black"/>
<path id="Vector_49" d="M625.95 124.881C625.95 134.163 622.262 143.066 615.699 149.63C609.135 156.193 600.233 159.881 590.95 159.881C581.667 159.881 572.765 156.193 566.201 149.63C559.637 143.066 555.95 134.163 555.95 124.881C555.95 124.301 555.95 123.721 555.95 123.141C556.181 113.858 560.09 105.048 566.816 98.6469C573.543 92.2463 582.537 88.7801 591.82 89.0108C601.103 89.2416 609.913 93.1503 616.314 99.8773C622.714 106.604 626.181 115.598 625.95 124.881Z" fill="#DB8B8B"/>
<path id="Vector_50" opacity="0.1" d="M625.95 124.881C625.953 128.107 625.509 131.317 624.63 134.421C621.925 135.01 619.103 134.752 616.55 133.681C612.81 132.211 609.6 129.681 606.01 127.861C595.9 122.741 583.87 123.751 572.67 125.441C567.11 126.281 560.8 127.061 556.43 123.521C556.28 123.402 556.136 123.275 556 123.141C556.231 113.858 560.139 105.048 566.866 98.6469C573.593 92.2463 582.587 88.7801 591.87 89.0108C601.153 89.2416 609.963 93.1503 616.364 99.8773C622.765 106.604 626.231 115.598 626 124.881H625.95Z" fill="black"/>
<path id="Vector_51" opacity="0.05" d="M462.45 232.381C462.45 232.381 488.45 239.381 496.45 257.381C504.45 275.381 526.09 278.671 526.09 278.671" fill="black"/>
<path id="Vector_52" d="M560.45 628.381H500.45V647.381H560.45V628.381Z" fill="#6C63FF"/>
<g id="Vector_53" opacity="0.1">
<path d="M560.45 628.381H500.45V647.381H560.45V628.381Z" fill="#413838" style="mix-blend-mode:darken"/>
</g>
<path id="Vector_54" d="M328.81 626.62C335.885 626.62 341.62 620.885 341.62 613.81C341.62 606.735 335.885 601 328.81 601C321.735 601 316 606.735 316 613.81C316 620.885 321.735 626.62 328.81 626.62Z" fill="#535461"/>
<path id="Vector_55" d="M509.46 593.121C514.83 590.121 519.54 587.121 519.95 585.881C519.95 585.881 533.5 600.181 545.57 604.621C549.628 606.12 553.514 608.051 557.16 610.381C561.94 613.381 568.76 616.911 574.95 616.911C574.95 616.911 588.95 628.911 561.95 630.911C534.95 632.911 471.95 625.911 471.95 625.911L475.95 600.911C487.637 601.596 499.274 598.891 509.46 593.121Z" fill="#ABB1D1"/>
</g>
<g id="hat">
<path id="Vector_56" d="M532.624 104.927C534.754 111.607 544.984 111.817 550.234 116.737C552.964 119.297 554.234 123.077 557.234 125.357C561.404 128.537 567.424 127.837 572.734 127.077C583.424 125.557 594.904 124.647 604.544 129.257C607.964 130.887 611.034 133.167 614.604 134.497C618.174 135.827 622.604 135.987 625.504 133.627C627.824 131.737 628.674 128.627 630.774 126.547C632.404 124.907 634.674 123.987 636.534 122.547C640.614 119.467 642.374 114.447 643.534 109.647C645.934 99.7667 646.624 89.1167 642.534 79.7467C638.444 70.3767 628.604 62.7467 617.864 63.2367C614.574 63.3867 611.364 64.2367 608.084 64.5967C599.534 65.4667 591.084 62.5967 582.504 62.1067C580.015 61.8039 577.49 62.1483 575.174 63.1067C573.427 64.0775 571.92 65.4273 570.764 67.0567C566.836 72.2021 564.146 78.1836 562.904 84.5367C561.904 89.3267 561.854 93.6667 555.984 94.4067C549.314 95.2867 528.114 90.7967 532.624 104.927Z" fill="#472727"/>
</g>
</g>
<defs>
<linearGradient id="paint0_linear" x1="676.822" y1="-58.7781" x2="-140.678" y2="496.722" gradientUnits="userSpaceOnUse">
<stop stop-color="#231AC1" stop-opacity="0.94"/>
<stop offset="0.947855" stop-color="#61A4B9" stop-opacity="0"/>
</linearGradient>
<clipPath id="clip0">
<rect width="1057.7" height="784.98" fill="white"/>
</clipPath>
</defs>
</svg>
